<?xml version="1.0"?>
<svg xmlns="http://www.w3.org/2000/svg" id="Layer_3" data-name="Layer 3" width="512" height="512" viewBox="0 0 32 32"><path d="M24.985,1H7.015A3.019,3.019,0,0,0,4,4.015v23.97A3.019,3.019,0,0,0,7.015,31h17.97A3.019,3.019,0,0,0,28,27.985V4.015A3.019,3.019,0,0,0,24.985,1ZM14.707,22.707l-3,3a1,1,0,0,1-1.414,0l-2-2a1,1,0,0,1,1.414-1.414L11,23.586l2.293-2.293a1,1,0,0,1,1.414,1.414Zm0-7.5-3,3a1,1,0,0,1-1.414,0l-2-2a1,1,0,0,1,1.414-1.414L11,16.086l2.293-2.293a1,1,0,0,1,1.414,1.414Zm0-7.5-3,3a1,1,0,0,1-1.414,0l-2-2A1,1,0,1,1,9.707,7.293L11,8.586l2.293-2.293a1,1,0,1,1,1.414,1.414ZM23,26H18a1,1,0,0,1,0-2h5a1,1,0,0,1,0,2Zm0-3H18a1,1,0,0,1,0-2h5a1,1,0,0,1,0,2Zm0-4.5H18a1,1,0,0,1,0-2h5a1,1,0,0,1,0,2Zm0-3H18a1,1,0,0,1,0-2h5a1,1,0,0,1,0,2ZM23,11H18a1,1,0,0,1,0-2h5a1,1,0,0,1,0,2Zm0-3H18a1,1,0,0,1,0-2h5a1,1,0,0,1,0,2Z"/></svg>
