<svg id="Layer_1" height="512" viewBox="0 0 64 64" width="512" xmlns="http://www.w3.org/2000/svg"><path d="m29 0h6v8h-6z"/><path d="m26.611 29.922-.001-.001-4.033-1.613-2.109 5.626 2.73 5.454 3.86-3.86.789-5.528z"/><path d="m20.98 44.434c-.044 1.86.279 10.447 9.305 17.192-2.43-9.222-3.063-18.921-3.227-23.27z"/><path d="m36.153 30 .789 5.528 3.86 3.86 2.73-5.454-2.109-5.626-4.034 1.614z"/><path d="m43.02 44.434-6.076-6.076c-.067 1.809-.212 4.532-.534 7.742-.052.516-.399.956-1.095.896-.55-.055-.95-.545-.896-1.095.533-5.32.576-9.275.58-9.83l-.867-6.071h-4.265l-.867 6.071c.007.999.152 12.834 2.996 24.178.727-2.892 1.342-6.027 1.823-9.391.078-.547.585-.925 1.132-.849.547.079.927.585.849 1.132-.541 3.779-1.246 7.288-2.092 10.489 9.03-6.744 9.356-15.331 9.311-17.197z"/><path d="m24.07 21.236 3.559-2.541-1.396-4.537-5.437 4.224 2.716 2.715z"/><path d="m28 24h8v4h-8z"/><path d="m52 54.99c0-2.21-1.79-3.99-3.99-3.99h-.01c0-3.407-1.132-5.191-2.98-6.406.016 2.632-.692 12.243-11.187 19.406h3.766c2.02 0 3.99-.46 5.77-1.32 1.77-.85 3.37-2.1 4.63-3.68 1.1 0 2.1-.45 2.83-1.17.72-.73 1.17-1.72 1.17-2.83v-.01zm-6 1.01c-.552 0-1-.448-1-1s.448-1 1-1 1 .448 1 1-.448 1-1 1z"/><path d="m55.24 31.7-3.24-3.7-3 1-4.529-9.057-2.96 2.96-3.512.878v3.743l3.629-1.452c.249-.1.528-.095.775.014.246.108.438.312.532.563l3 8s5.063 4.352 5.063 4.352l.3 2.39c.329 2.649-.272 5.304-1.651 7.528 1.806.664 3.423 2.408 4.056 4.377l.845-.845c1.43-1.43 2.54-3.1 3.29-4.93.76-1.82 1.16-3.8 1.16-5.81 0-3.68-1.34-7.24-3.76-10.01z"/><path d="m18.98 44.594c-1.848 1.216-2.98 2.999-2.98 6.406h-.01c-2.2 0-3.99 1.78-3.99 3.99v.01c0 1.11.45 2.1 1.17 2.83.73.72 1.73 1.17 2.83 1.17 1.26 1.58 2.86 2.83 4.63 3.68 1.78.86 3.75 1.32 5.77 1.32h3.766c-10.494-7.164-11.202-16.775-11.187-19.406zm-.98 11.406c-.552 0-1-.448-1-1s.448-1 1-1 1 .448 1 1-.448 1-1 1z"/><path d="m33.262 22 3.692-12h-9.908l3.692 12z"/><path d="m14.597 49.271c-1.544-2.295-2.245-5.087-1.897-7.881l.3-2.39s5.062-4.347 5.063-4.352l3-8c.095-.251.286-.455.532-.563.247-.108.526-.113.775-.014l3.629 1.452v-3.743l-3.512-.878-2.96-2.96-4.529 9.057-3-1-3.24 3.7c-2.42 2.77-3.76 6.33-3.76 10.01 0 2.01.4 3.99 1.16 5.81.75 1.83 1.86 3.5 3.29 4.93l.841.841c.629-1.92 2.261-3.524 4.306-4.02z"/><path d="m39.93 21.236.558-.139 2.716-2.715-5.437-4.224-1.396 4.537z"/><circle cx="11.5" cy="62.5" r="1.5"/><circle cx="52.5" cy="62.5" r="1.5"/></svg>