<?xml version="1.0" encoding="iso-8859-1"?>
<!-- Generator: Adobe Illustrator 17.1.0, SVG Export Plug-In . SVG Version: 6.00 Build 0)  -->
<!DOCTYPE svg PUBLIC "-//W3C//DTD SVG 1.1//EN" "http://www.w3.org/Graphics/SVG/1.1/DTD/svg11.dtd">
<svg version="1.1" id="Capa_1" xmlns="http://www.w3.org/2000/svg" xmlns:xlink="http://www.w3.org/1999/xlink" x="0px" y="0px"
	 viewBox="0 0 239.24 239.24" style="enable-background:new 0 0 239.24 239.24;" xml:space="preserve">
<g>
	<path d="M228.965,145.932l-4.429-0.032c-4.202-0.03-10.321-2.508-13.361-5.41l-17.541-16.752
		c-3.396-3.242-9.537-5.597-14.601-5.597c-0.478,0-0.946,0.022-1.392,0.065l-49.761,4.809c-1.627,0.156-3.692,0.239-5.973,0.239
		c-3.825,0-7.721-0.231-10.419-0.618l-28.104-4.031c-0.688-0.099-1.425-0.148-2.194-0.148c-4.935,0-10.726,1.994-14.084,4.851
		L45.663,141.55c-3.318,2.822-9.703,6.036-13.944,7.019L9.66,153.682C4.334,154.917,0,160.37,0,165.838v28.44
		c0,5.674,4.616,10.29,10.29,10.29h16.437c3.486,11.968,14.547,20.74,27.624,20.74c13.077,0,24.138-8.772,27.624-20.74h62.133
		c3.486,11.968,14.547,20.74,27.624,20.74c13.077,0,24.138-8.772,27.624-20.74h29.595c5.674,0,10.29-4.616,10.29-10.29v-37.996
		C239.24,150.616,234.631,145.972,228.965,145.932z M54.351,210.828c-7.895,0-14.293-6.4-14.293-14.293
		c0-7.895,6.399-14.294,14.293-14.294s14.293,6.399,14.293,14.294C68.644,204.427,62.245,210.828,54.351,210.828z M123.672,148.582
		H63.8c-3.76,0-4.305-1.748-1.212-3.886l14.111-9.748c3.093-2.138,8.7-3.886,12.46-3.886h34.513V148.582z M171.732,210.828
		c-7.893,0-14.293-6.4-14.293-14.293c0-7.895,6.4-14.294,14.293-14.294c7.892,0,14.293,6.399,14.293,14.294
		C186.024,204.427,179.624,210.828,171.732,210.828z M192.575,148.582h-52.456v-17.52h30.073c3.76,0,9.258,1.896,12.219,4.213
		l11.617,9.094C196.989,146.685,196.335,148.582,192.575,148.582z"/>
	<path d="M32.032,110.431h192.311c3.607,0,6.542-2.935,6.542-6.542V89.276c0-3.607-2.935-6.542-6.542-6.542h-54.076
		c-2.471,0-5.981-1.528-7.665-3.336l-8.583-9.222c-2.202-2.364-6.458-4.216-9.689-4.216h-0.425c-2.083,0-3.778-1.695-3.778-3.778
		V20.473c0-3.607-2.935-6.542-6.542-6.542h-8.822c-3.607,0-6.542,2.935-6.542,6.542v41.709c0,2.083-1.695,3.778-3.778,3.778h-2.397
		c-3.23,0-7.486,1.851-9.688,4.217l-8.583,9.22c-1.684,1.809-5.194,3.337-7.665,3.337H32.032c-3.607,0-6.542,2.935-6.542,6.542
		v14.613C25.49,107.497,28.425,110.431,32.032,110.431z"/>
	<path d="M182.7,72.541c0.602,0.711,1.457,1.119,2.347,1.119c0.89,0,1.745-0.408,2.347-1.119l9.668-11.439
		c0.994-1.177,0.696-2.178,0.523-2.553c-0.175-0.376-0.746-1.249-2.287-1.249h-3.503c-0.335,0-0.618-0.283-0.618-0.618V37.396
		c0-1.865-1.517-3.382-3.382-3.382h-5.497c-1.865,0-3.382,1.517-3.382,3.382v19.286c0,0.335-0.283,0.618-0.618,0.618h-3.5
		c-1.541,0-2.112,0.873-2.287,1.249c-0.174,0.375-0.472,1.376,0.522,2.553L182.7,72.541z"/>
	<path d="M67.69,72.541c0.602,0.711,1.457,1.119,2.347,1.119c0.89,0,1.745-0.408,2.347-1.119l9.668-11.439
		c0.994-1.177,0.696-2.178,0.522-2.553c-0.175-0.376-0.746-1.249-2.287-1.249h-3.503c-0.335,0-0.618-0.283-0.618-0.618V37.396
		c0-1.865-1.517-3.382-3.382-3.382h-5.497c-1.865,0-3.382,1.517-3.382,3.382v19.286c0,0.335-0.283,0.618-0.618,0.618h-3.5
		c-1.541,0-2.112,0.873-2.287,1.249c-0.174,0.375-0.472,1.376,0.522,2.553L67.69,72.541z"/>
</g>
<g>
</g>
<g>
</g>
<g>
</g>
<g>
</g>
<g>
</g>
<g>
</g>
<g>
</g>
<g>
</g>
<g>
</g>
<g>
</g>
<g>
</g>
<g>
</g>
<g>
</g>
<g>
</g>
<g>
</g>
</svg>
