<svg id="Layer_1" enable-background="new 0 0 511.98 511.98" height="512" viewBox="0 0 511.98 511.98" width="512" xmlns="http://www.w3.org/2000/svg"><path d="m511.858 334.015-32-256c-1.504-11.948-15.165-18.002-25.01-11.16-86.89 60.42-200.79 82.58-281.04 90.53-87.83 8.7-155.7 2.74-156.38 2.68-9.778-.893-18.658 7.286-17.288 18.252l31.957 255.657c1 8.01 7.81 14.02 15.88 14.02 85.98 0 165.022-6.707 235.964-19.98 10.547-1.973 19.553-10.713 20.131-24.498 2.359-55.75 49.036-100.008 104.834-99.518 34.356.302 64.777 17.339 83.513 43.339 6.739 9.351 21.029-.469 19.439-13.322zm-183.76-2.317c-29.449 70.544-102.274 61.988-135.117 6.934-7.471 1.317-8.033 1.496-9.889 1.496-7.619 0-14.37-5.461-15.738-13.224-1.535-8.702 4.276-17.001 12.979-18.535.66-.116.107.608-1.389-7.878-1.496-8.484-.732-7.994-1.389-7.878-8.703 1.534-17.001-4.276-18.535-12.979-1.535-8.702 4.276-17.001 12.979-18.535l7.092-1.25c11.998-62.784 77.366-96.102 129.341-39.698 5.987 6.499 5.574 16.621-.925 22.608-6.496 5.989-16.62 5.575-22.608-.924-9.045-9.817-23.026-20.957-38.283-18.264-12.734 2.246-25.451 11.826-32.606 30.12l21.017-3.706c8.704-1.534 17.001 4.277 18.535 12.979 1.535 8.702-4.276 17.001-12.979 18.535l-31.133 5.49c.46 5.664 1.357 10.579 2.778 15.757l31.133-5.49c8.707-1.531 17.001 4.277 18.535 12.979s-4.276 17.001-12.979 18.535l-21.017 3.706c12.976 14.738 28.2 19.399 40.941 17.151 15.253-2.69 24.585-17.938 29.728-30.256 3.403-8.154 12.773-12.004 20.929-8.601 8.153 3.403 12.004 12.773 8.6 20.928z"/><path d="m407.978 479.995c-39.701 0-72-32.299-72-72s32.299-72 72-72 72 32.299 72 72-32.299 72-72 72z"/><path d="m205.934 50.388c-5.224 3.16-5.041 10.811.289 13.79 17.988 10.052 33.316 24.323 44.641 41.463 2.749 4.161 7.74 6.241 12.611 5.17 30.956-6.81 63.533-15.992 95.98-28.363 5.381-2.052 6.904-9.017 2.825-13.082-42.125-41.984-106.672-49.025-156.346-18.978z"/><path d="m67.881 117.541c-4.015 5.217-.22 12.785 6.363 12.808 43.454.154 88.654-2.826 132.455-9.213 6.584-.96 9.18-9.021 4.427-13.678-41.295-40.467-108.191-35.468-143.245 10.083z"/></svg>