<?xml version="1.0"?>
<svg xmlns="http://www.w3.org/2000/svg" viewBox="0 0 512 512" width="512" height="512"><g id="outline_create_copy" data-name="outline create copy"><path d="M360.609,308.225l-2.745-6.627a8,8,0,0,1,.236-6.639l8.734-17.471-3.159-3.159L346.2,283.063a8,8,0,0,1-6.639.236l-6.627-2.745a8,8,0,0,1-4.528-4.861l-6.176-18.53h-4.468l-6.176,18.53a8,8,0,0,1-4.528,4.861l-6.627,2.745a7.987,7.987,0,0,1-6.639-.236l-17.471-8.734-3.159,3.159,8.734,17.471a8,8,0,0,1,.236,6.639l-2.745,6.627a8,8,0,0,1-4.861,4.528L256,318.929V323.4l18.53,6.176a8.005,8.005,0,0,1,4.862,4.529l2.745,6.627a8,8,0,0,1-.237,6.64l-8.734,17.469L276.325,368l17.471-8.734a7.994,7.994,0,0,1,6.639-.236l6.627,2.745a8,8,0,0,1,4.528,4.861l6.176,18.53h4.468l6.176-18.53a8,8,0,0,1,4.528-4.861l6.627-2.745a7.994,7.994,0,0,1,6.639.236L363.675,368l3.159-3.159L358.1,347.369a8,8,0,0,1-.237-6.64l2.745-6.627a8.005,8.005,0,0,1,4.862-4.529L384,323.4v-4.468l-18.53-6.176A8,8,0,0,1,360.609,308.225ZM320,337.163a16,16,0,1,1,16-16A16.019,16.019,0,0,1,320,337.163Z"/><path d="M136,96a40,40,0,1,0,40,40A40.045,40.045,0,0,0,136,96Zm0,56a16,16,0,1,1,16-16A16.019,16.019,0,0,1,136,152Z"/><path d="M320,225.163a96,96,0,1,0,96,96A96.109,96.109,0,0,0,320,225.163Zm80,88v16a8,8,0,0,1-5.47,7.59l-20.443,6.813,9.637,19.274a8,8,0,0,1-1.5,9.235l-11.314,11.314a8,8,0,0,1-9.234,1.5L342.4,375.25l-6.813,20.443a8,8,0,0,1-7.59,5.47H312a8,8,0,0,1-7.59-5.47L297.6,375.25l-19.275,9.637a8,8,0,0,1-9.234-1.5l-11.314-11.314a8,8,0,0,1-1.5-9.235l9.637-19.274-20.443-6.813a8,8,0,0,1-5.47-7.59v-16a8,8,0,0,1,5.47-7.59l20.443-6.813-9.637-19.275a8,8,0,0,1,1.5-9.234l11.314-11.313a8,8,0,0,1,9.234-1.5l19.275,9.637,6.813-20.443a8,8,0,0,1,7.59-5.47h16a8,8,0,0,1,7.59,5.47l6.813,20.443,19.275-9.637a8,8,0,0,1,9.234,1.5l11.314,11.313a8,8,0,0,1,1.5,9.234l-9.637,19.275,20.443,6.813A8,8,0,0,1,400,313.163Z"/><path d="M489.94,305.4l-26.963-6.741-.926-5.254,23.031-15.555a8,8,0,0,0,3.04-9.367l-5.473-15.035a8,8,0,0,0-8.348-5.221l-27.643,2.888-2.667-4.62L460.313,224a8,8,0,0,0-.347-9.841L449.681,201.9a8,8,0,0,0-9.63-2.05l-24.989,12.167-4.086-3.428,7.643-26.722a8,8,0,0,0-3.691-9.128l-13.856-8a8,8,0,0,0-9.751,1.367L372,186.091l-5.013-1.825-1.956-27.724a8,8,0,0,0-6.592-7.316l-15.757-2.779a8,8,0,0,0-8.7,4.62l-11.319,25.384h-5.336l-11.319-25.384a8.008,8.008,0,0,0-8.7-4.62l-15.757,2.779a8,8,0,0,0-6.592,7.316l-1.956,27.724L268,186.091l-19.32-19.981a8,8,0,0,0-9.751-1.367l-13.856,8a8,8,0,0,0-3.691,9.128l2.984,10.435-8.722-14.537,6.207-14.985,28.09-7.023A8,8,0,0,0,256,148V124a8,8,0,0,0-6.06-7.761l-28.09-7.023-6.207-14.985,13.694-34.6-16.97-16.97a8,8,0,0,0-9.773-1.2l-24.825,14.9L162.784,50.15l-7.023-28.09A8,8,0,0,0,148,16H124a8,8,0,0,0-7.761,6.06l-7.023,28.09L94.231,56.357l-24.825-14.9a8,8,0,0,0-9.773,1.2l-16.97,16.97a8,8,0,0,0-1.2,9.773l14.9,24.825L50.15,109.216l-28.09,7.023A8,8,0,0,0,16,124v24a8,8,0,0,0,6.06,7.761l28.09,7.023,6.207,14.985-14.9,24.825a8,8,0,0,0,1.2,9.773l16.97,16.97a8,8,0,0,0,9.773,1.2l24.825-14.9,14.985,6.207,7.023,28.09A8,8,0,0,0,124,256h24a8,8,0,0,0,7.761-6.06l7.023-28.09,14.986-6.207,1.014.608a7.987,7.987,0,0,0,.9,7.75l16.322,22.5-2.667,4.62L165.7,248.229a7.993,7.993,0,0,0-8.348,5.221l-5.473,15.035a8,8,0,0,0,3.04,9.367l23.031,15.555-.926,5.254L150.06,305.4a8,8,0,0,0-6.06,7.761v16a8,8,0,0,0,6.06,7.761l26.963,6.741.926,5.254-17.637,11.913a7.958,7.958,0,0,0-2.086-3.744l-11.314-11.314a8,8,0,0,0-9.234-1.5L118.4,353.913,111.59,333.47A8,8,0,0,0,104,328H88a8,8,0,0,0-7.59,5.47L73.6,353.913l-19.275-9.637a8,8,0,0,0-9.234,1.5L33.774,357.088a8,8,0,0,0-1.5,9.234L41.913,385.6,21.47,392.41A8,8,0,0,0,16,400v16a8,8,0,0,0,5.47,7.59L41.913,430.4l-9.637,19.275a8,8,0,0,0,1.5,9.234l11.314,11.314a8,8,0,0,0,9.234,1.5L73.6,462.087,80.41,482.53A8,8,0,0,0,88,488h16a8,8,0,0,0,7.59-5.47l6.813-20.443,19.275,9.637a8,8,0,0,0,9.234-1.5l11.314-11.314a8,8,0,0,0,1.5-9.234L150.087,430.4l20.443-6.813A8,8,0,0,0,176,416V400a7.985,7.985,0,0,0-3.528-6.611l20.87-2.18,2.667,4.62-16.322,22.5a8,8,0,0,0,.347,9.841l10.285,12.257a8,8,0,0,0,9.631,2.05l24.988-12.168,4.086,3.428-7.643,26.722a8,8,0,0,0,3.691,9.128l13.856,8a8,8,0,0,0,9.751-1.367L268,456.235l5.013,1.826,1.956,27.723a8,8,0,0,0,6.592,7.317l15.757,2.778a8.01,8.01,0,0,0,8.7-4.62l11.319-25.384h5.336l11.319,25.384a8,8,0,0,0,8.7,4.62L358.44,493.1a8,8,0,0,0,6.592-7.317l1.956-27.723L372,456.235l19.32,19.981a8,8,0,0,0,9.751,1.367l13.856-8a8,8,0,0,0,3.691-9.128l-7.643-26.722,4.086-3.428,24.988,12.168a8,8,0,0,0,9.631-2.05l10.285-12.257a8,8,0,0,0,.347-9.841l-16.322-22.5,2.667-4.62L474.3,394.1a8,8,0,0,0,8.348-5.221l5.473-15.035a8,8,0,0,0-3.04-9.366l-23.031-15.556.926-5.254,26.963-6.741a8,8,0,0,0,6.06-7.761v-16A8,8,0,0,0,489.94,305.4ZM136,192a56,56,0,1,1,56-56A56.063,56.063,0,0,1,136,192ZM96,424a16,16,0,1,1,16-16A16.019,16.019,0,0,1,96,424Zm54.087-38.4,3.513-7.026L157,387.9ZM320,433.163a112,112,0,1,1,112-112A112.127,112.127,0,0,1,320,433.163Z"/></g></svg>
