<svg id="Capa_1" enable-background="new 0 0 507.923 507.923" height="512" viewBox="0 0 507.923 507.923" width="512" xmlns="http://www.w3.org/2000/svg"><g><path clip-rule="evenodd" d="m185.51 127.817v-59.957l-36.605-31.375-125.889 119.263c-2.975 2.818-7.672 2.692-10.49-.284l-10.206-10.773c-2.818-2.975-2.692-7.672.284-10.49l135.598-128.462c5.518-5.227 14.094-5.441 19.865-.494l51.942 44.522c3.289 2.819 5.183 6.935 5.183 11.268v66.783h29.681c8.196 0 14.841 6.644 14.841 14.841v59.362c0 8.196-6.644 14.841-14.841 14.841h-89.043c-8.196 0-14.841-6.644-14.841-14.841v-59.362c0-8.196 6.644-14.841 14.841-14.841h29.68zm283.798 308.064c-11.667-7.908-23.359-11.253-38.928-11.253-22.951 0-37.478 7.27-55.916 25.707-1.497 1.497-2.631 2.584-3.447 3.338-.816-.754-1.95-1.841-3.447-3.338-18.438-18.438-32.965-25.707-55.916-25.707s-37.478 7.27-55.916 25.707c-1.497 1.497-2.631 2.584-3.447 3.338-.816-.754-1.95-1.841-3.447-3.338-18.438-18.438-32.965-25.707-55.916-25.707s-37.478 7.27-55.916 25.707c-1.497 1.497-2.631 2.584-3.447 3.338-.816-.754-1.95-1.841-3.447-3.338-18.437-18.438-32.965-25.707-55.916-25.707-5.234 0-10.03.378-14.535 1.181-5.904-9.168-11.785-18.771-17.314-28.446-4.044-7.077-7.762-13.958-11.086-20.575-2.964-5.9-5.591-11.542-7.845-16.894-3.429-8.144-6.609-17.286-9.565-27.263-4.009-13.53-7.423-27.934-10.266-42.325-.993-5.028-1.845-9.701-2.557-13.904-.432-2.549-.724-4.396-.876-5.426-1.328-8.964 5.618-17.015 14.68-17.015h126.145c3.595 0 7.067 1.305 9.773 3.672l55.166 48.27h283.815c6.388 0 12.059 4.087 14.079 10.148.618 1.855 1.409 4.84 2.156 8.829 2.844 15.167 2.844 32.679-1.838 51.405-3.349 13.397-10.375 27.047-19.957 40.736-4.57 6.528-9.44 12.651-14.315 18.223-.184.216-.37.429-.554.637zm-358.001-63.195h44.522c4.098 0 7.42-3.322 7.42-7.42v-14.841c0-4.098-3.322-7.42-7.42-7.42h-44.522c-4.098 0-7.42 3.322-7.42 7.42v14.841c0 4.098 3.322 7.42 7.42 7.42zm-96.464 133.565c-2.474 0-4.947 0-7.42 0-4.098 0-7.42-3.322-7.42-7.42v-14.841c0-4.098 3.322-7.42 7.42-7.42h7.42c7.428 0 10.592-1.898 19.187-10.494 13.665-13.665 22.869-19.188 40.175-19.188s26.51 5.522 40.175 19.188c8.596 8.596 11.759 10.494 19.187 10.494s10.592-1.898 19.187-10.494c13.665-13.665 22.869-19.188 40.175-19.188s26.51 5.522 40.175 19.188c8.596 8.596 11.759 10.494 19.187 10.494s10.592-1.898 19.187-10.494c13.665-13.665 22.869-19.188 40.175-19.188s26.51 5.522 40.175 19.188c8.596 8.596 11.759 10.494 19.187 10.494s10.592-1.898 19.187-10.494c13.665-13.665 22.869-19.188 40.175-19.188s26.51 5.522 40.175 19.188c8.596 8.596 11.759 10.494 19.187 10.494h7.42c4.098 0 7.42 3.322 7.42 7.42v14.841c0 4.098-3.322 7.42-7.42 7.42-2.474 0-4.947 0-7.42 0-17.306 0-26.51-5.522-40.175-19.188-8.596-8.596-11.759-10.494-19.187-10.494s-10.592 1.898-19.187 10.494c-13.665 13.665-22.869 19.188-40.175 19.188s-26.51-5.522-40.175-19.188c-8.596-8.596-11.759-10.494-19.187-10.494s-10.592 1.898-19.187 10.494c-13.665 13.665-22.869 19.188-40.175 19.188s-26.51-5.522-40.175-19.188c-8.596-8.596-11.759-10.494-19.187-10.494s-10.592 1.898-19.187 10.494c-13.665 13.665-22.869 19.188-40.175 19.188s-26.51-5.522-40.175-19.188c-8.596-8.596-11.759-10.494-19.187-10.494s-10.592 1.898-19.187 10.494c-13.665 13.666-22.868 19.188-40.175 19.188zm356.174-378.434h29.681c8.196 0 14.841 6.644 14.841 14.841v51.942h-96.464v-51.942c0-8.196 6.644-14.841 14.841-14.841h7.42v-29.682h-14.841c-4.098 0-7.42-3.322-7.42-7.42v-14.84c0-4.098 3.322-7.42 7.42-7.42h14.841v-14.841c0-4.098 3.322-7.42 7.42-7.42h14.841c4.098 0 7.42 3.322 7.42 7.42v14.841h14.841c4.098 0 7.42 3.322 7.42 7.42v14.841c0 4.098-3.322 7.42-7.42 7.42h-14.841zm-51.942 155.826v-66.783h126.145c6.068 0 11.525 3.695 13.779 9.329l13.886 57.454z" fill-rule="evenodd"/></g></svg>