<svg id="Layer_3" enable-background="new 0 0 64 64" height="512" viewBox="0 0 64 64" width="512" xmlns="http://www.w3.org/2000/svg"><path d="m26.595 51.001h-7.08l3.177-3.001h1.308c.268 0 .508-.108.687-.279l.003.003 22-21c.198-.189.31-.451.31-.724v-.957l6.397-6.043h6.138zm-11.595-5.001v-8h8v8zm30-28.586v8.158l-20 19.091v-7.249zm10.586-.414h-2.586c-.255 0-.501.098-.687.273l-5.313 5.019v-3.878l14-14v7.172zm-3.172-14h7.172l-12.586 12.586v-.586c0-.552-.448-1-1-1h-4.586zm-15.013 13h6.185l-20 20h-7.094zm-23.401 32h.586l-3 3h-7.172l8.586-8.586v4.586c0 .553.448 1 1 1zm-3 13h-8v-8h8zm2-1.414v-7.172l4.415-4.414h2.366l-3.467 3.274.003.003c-.193.183-.317.437-.317.724v4.585zm13 1.415h-8v-8h8zm2-1.414v-7.164l33-32.058v6.22z"/></svg>