<svg id="Layer_1" height="512" viewBox="0 0 502 210" width="512" xmlns="http://www.w3.org/2000/svg"><g id="Layer_42"><path d="m41.8 162.9c-11.7.1-21.5 8.6-23.3 20.1-.2 1.1-.3 2.3-.3 3.4 0 2.2.4 4.5 1 6.6 3.6 12.5 16.6 19.7 29 16.2 7.8-2.2 13.9-8.3 16.2-16.2.6-2.1.9-4.4.9-6.6 0-1.1-.1-2.3-.3-3.4-1.7-11.5-11.6-20.1-23.2-20.1z"/><path d="m421.4 79.3h71l-1.2-13.6-1.8-21.1h-68z"/><path d="m354.7 0h-354.7v143.9h160.6v.4h44.3v-.4h149.8zm-325.2 129.3h-13.1v-119.6h13.1zm42.1 0h-13.1v-119.6h13.1zm42.1 0h-13.1v-119.6h13.1zm42.1 0h-13.1v-119.6h13.1zm42.1 0h-13.1v-119.6h13.1zm42.1 0h-13.2v-119.6h13.2zm42.1 0h-13.2v-119.6h13.2zm42.1 0h-13.2v-119.6h13.2z"/><path d="m111.8 162.9c-11.7.1-21.5 8.6-23.3 20.1-.1 1.1-.2 2.3-.2 3.4 0 2.2.3 4.5.9 6.6 3.6 12.5 16.6 19.7 29 16.2 7.8-2.2 13.9-8.3 16.2-16.2.6-2.1 1-4.4 1-6.6 0-1.1-.1-2.3-.3-3.4-1.8-11.5-11.6-20-23.3-20.1z"/><path d="m315 154.3h-51.2c13.1 3.8 22.5 15.2 23.9 28.7h3.3c1.5-13.5 10.9-24.8 23.9-28.7z"/><path d="m32.3 154.3h-26.5v17.7c0 2.8 1.1 5.6 3.1 7.6 2.6-12.1 11.5-21.8 23.4-25.3z"/><path d="m121.3 154.3c12.6 3.7 21.8 14.3 23.7 27.3 3.4-2 5.6-5.6 5.6-9.6v-17.7z"/><path d="m102.4 154.3h-51.2c13.1 3.8 22.5 15.2 23.9 28.7h3.4c1.4-13.5 10.8-24.9 23.9-28.7z"/><path d="m446.7 162.9c-11.7.1-21.5 8.6-23.3 20.1-.1 1.1-.2 2.3-.2 3.4 0 2.2.3 4.5.9 6.6 3.6 12.5 16.6 19.7 29 16.2 7.8-2.2 13.9-8.3 16.2-16.2.6-2.1.9-4.4.9-6.6 0-1.1 0-2.3-.2-3.4-1.8-11.5-11.6-20-23.3-20.1z"/><path d="m244.9 154.3h-30v17.7c0 4.2 2.4 8.1 6.2 9.9 1.8-13.1 11.1-23.9 23.8-27.6z"/><path d="m369.1 153.9h-10.6c-.8.2-1.6.4-2.4.4h-22.2c13.1 3.8 22.5 15.2 23.9 28.7h12.8c-1-2.2-1.5-4.5-1.5-6.9z"/><path d="m501.1 107.2-5.7-10.4c-1.1-2.1-1.8-4.4-2-6.7v-.8h-75c-3.8 0-6.9-3.1-6.9-6.9v-.1-40.8c0-3.8 3.1-6.9 6.9-6.9h70.3v-.8c-.3-3.3-2.8-5.9-6.1-6.3l-95.8-10.9h-.8c-1.7 0-3.3.6-4.6 1.7-1.5 1.3-2.3 3.2-2.3 5.2v152.6c0 1.8.7 3.4 1.9 4.7 1.3 1.4 3.1 2.2 5 2.2h27.4c1.7-18.4 18.1-31.9 36.5-30.2 16 1.5 28.7 14.2 30.2 30.2h14.9c3.8 0 6.9-3.1 6.9-6.9v-65.6c0-1.2-.2-2.3-.8-3.3z"/><path d="m254.3 162.9c-11.6 0-21.5 8.6-23.2 20.1-.2 1.1-.3 2.3-.3 3.4 0 2.2.3 4.5.9 6.6 3.6 12.5 16.6 19.7 29 16.2 7.8-2.2 13.9-8.3 16.2-16.2.6-2.1 1-4.4 1-6.6 0-1.1-.1-2.3-.3-3.4-1.8-11.5-11.6-20-23.3-20.1z"/><path d="m324.4 162.9c-11.7.1-21.5 8.6-23.3 20.1-.1 1.1-.2 2.3-.2 3.4 0 2.2.3 4.5.9 6.6 3.6 12.5 16.6 19.7 29 16.2 7.8-2.2 13.9-8.3 16.2-16.2.6-2.1.9-4.4.9-6.6 0-1.1-.1-2.3-.2-3.4-1.8-11.5-11.6-20-23.3-20.1z"/></g></svg>