<svg enable-background="new 0 0 24 24" height="512" viewBox="0 0 24 24" width="512" xmlns="http://www.w3.org/2000/svg"><path d="m5.5 5.177-4.947 1.349c-.326.089-.553.386-.553.724v10.5c0 .338.227.635.553.724l4.947 1.349z"/><path d="m23.316 6.503-16.316-1.44v14.874l16.316-1.44c.387-.034.684-.358.684-.747v-10.5c0-.389-.297-.713-.684-.747zm-12.816 9.747c0 .414-.336.75-.75.75s-.75-.336-.75-.75v-7.5c0-.414.336-.75.75-.75s.75.336.75.75zm4-.5c0 .414-.336.75-.75.75s-.75-.336-.75-.75v-6.5c0-.414.336-.75.75-.75s.75.336.75.75zm4-.5c0 .414-.336.75-.75.75s-.75-.336-.75-.75v-5.5c0-.414.336-.75.75-.75s.75.336.75.75zm3.5-.25c0 .414-.336.75-.75.75s-.75-.336-.75-.75v-4.75c0-.414.336-.75.75-.75s.75.336.75.75z"/></svg>